<svg width="1920" height="1080" viewBox="0 0 1920 1080" fill="none" xmlns="http://www.w3.org/2000/svg">
<g clip-path="url(#clip0_36_3)">
<circle cx="5" cy="5" r="5" fill="white"/>
<circle cx="75" cy="5" r="5" fill="white"/>
<circle cx="145" cy="5" r="5" fill="white"/>
<circle cx="215" cy="5" r="5" fill="white"/>
<circle cx="285" cy="5" r="5" fill="white"/>
<circle cx="355" cy="5" r="5" fill="white"/>
<circle cx="425" cy="5" r="5" fill="white"/>
<circle cx="495" cy="5" r="5" fill="white"/>
<circle cx="565" cy="5" r="5" fill="white"/>
<circle cx="635" cy="5" r="5" fill="white"/>
<circle cx="705" cy="5" r="5" fill="white"/>
<circle cx="775" cy="5" r="5" fill="white"/>
<circle cx="845" cy="5" r="5" fill="white"/>
<circle cx="915" cy="5" r="5" fill="white"/>
<circle cx="985" cy="5" r="5" fill="white"/>
<circle cx="1055" cy="5" r="5" fill="white"/>
<circle cx="1125" cy="5" r="5" fill="white"/>
<circle cx="1195" cy="5" r="5" fill="white"/>
<circle cx="1265" cy="5" r="5" fill="white"/>
<circle cx="1335" cy="5" r="5" fill="white"/>
<circle cx="1405" cy="5" r="5" fill="white"/>
<circle cx="1475" cy="5" r="5" fill="white"/>
<circle cx="1545" cy="5" r="5" fill="white"/>
<circle cx="1615" cy="5" r="5" fill="white"/>
<circle cx="1685" cy="5" r="5" fill="white"/>
<circle cx="1755" cy="5" r="5" fill="white"/>
<circle cx="1825" cy="5" r="5" fill="white"/>
<circle cx="1895" cy="5" r="5" fill="white"/>
<circle cx="5" cy="75" r="5" fill="white"/>
<circle cx="75" cy="75" r="5" fill="white"/>
<circle cx="145" cy="75" r="5" fill="white"/>
<circle cx="215" cy="75" r="5" fill="white"/>
<circle cx="285" cy="75" r="5" fill="white"/>
<circle cx="355" cy="75" r="5" fill="white"/>
<circle cx="425" cy="75" r="5" fill="white"/>
<circle cx="495" cy="75" r="5" fill="white"/>
<circle cx="565" cy="75" r="5" fill="white"/>
<circle cx="635" cy="75" r="5" fill="white"/>
<circle cx="705" cy="75" r="5" fill="white"/>
<circle cx="775" cy="75" r="5" fill="white"/>
<circle cx="845" cy="75" r="5" fill="white"/>
<circle cx="915" cy="75" r="5" fill="white"/>
<circle cx="985" cy="75" r="5" fill="white"/>
<circle cx="1055" cy="75" r="5" fill="white"/>
<circle cx="1125" cy="75" r="5" fill="white"/>
<circle cx="1195" cy="75" r="5" fill="white"/>
<circle cx="1265" cy="75" r="5" fill="white"/>
<circle cx="1335" cy="75" r="5" fill="white"/>
<circle cx="1405" cy="75" r="5" fill="white"/>
<circle cx="1475" cy="75" r="5" fill="white"/>
<circle cx="1545" cy="75" r="5" fill="white"/>
<circle cx="1615" cy="75" r="5" fill="white"/>
<circle cx="1685" cy="75" r="5" fill="white"/>
<circle cx="1755" cy="75" r="5" fill="white"/>
<circle cx="1825" cy="75" r="5" fill="white"/>
<circle cx="1895" cy="75" r="5" fill="white"/>
<circle cx="5" cy="145" r="5" fill="white"/>
<circle cx="75" cy="145" r="5" fill="white"/>
<circle cx="145" cy="145" r="5" fill="white"/>
<circle cx="215" cy="145" r="5" fill="white"/>
<circle cx="285" cy="145" r="5" fill="white"/>
<circle cx="355" cy="145" r="5" fill="white"/>
<circle cx="425" cy="145" r="5" fill="white"/>
<circle cx="495" cy="145" r="5" fill="white"/>
<circle cx="565" cy="145" r="5" fill="white"/>
<circle cx="635" cy="145" r="5" fill="white"/>
<circle cx="705" cy="145" r="5" fill="white"/>
<circle cx="775" cy="145" r="5" fill="white"/>
<circle cx="845" cy="145" r="5" fill="white"/>
<circle cx="915" cy="145" r="5" fill="white"/>
<circle cx="985" cy="145" r="5" fill="white"/>
<circle cx="1055" cy="145" r="5" fill="white"/>
<circle cx="1125" cy="145" r="5" fill="white"/>
<circle cx="1195" cy="145" r="5" fill="white"/>
<circle cx="1265" cy="145" r="5" fill="white"/>
<circle cx="1335" cy="145" r="5" fill="white"/>
<circle cx="1405" cy="145" r="5" fill="white"/>
<circle cx="1475" cy="145" r="5" fill="white"/>
<circle cx="1545" cy="145" r="5" fill="white"/>
<circle cx="1615" cy="145" r="5" fill="white"/>
<circle cx="1685" cy="145" r="5" fill="white"/>
<circle cx="1755" cy="145" r="5" fill="white"/>
<circle cx="1825" cy="145" r="5" fill="white"/>
<circle cx="1895" cy="145" r="5" fill="white"/>
<circle cx="5" cy="215" r="5" fill="white"/>
<circle cx="75" cy="215" r="5" fill="white"/>
<circle cx="145" cy="215" r="5" fill="white"/>
<circle cx="215" cy="215" r="5" fill="white"/>
<circle cx="285" cy="215" r="5" fill="white"/>
<circle cx="355" cy="215" r="5" fill="white"/>
<circle cx="425" cy="215" r="5" fill="white"/>
<circle cx="495" cy="215" r="5" fill="white"/>
<circle cx="565" cy="215" r="5" fill="white"/>
<circle cx="635" cy="215" r="5" fill="white"/>
<circle cx="705" cy="215" r="5" fill="white"/>
<circle cx="775" cy="215" r="5" fill="white"/>
<circle cx="845" cy="215" r="5" fill="white"/>
<circle cx="915" cy="215" r="5" fill="white"/>
<circle cx="985" cy="215" r="5" fill="white"/>
<circle cx="1055" cy="215" r="5" fill="white"/>
<circle cx="1125" cy="215" r="5" fill="white"/>
<circle cx="1195" cy="215" r="5" fill="white"/>
<circle cx="1265" cy="215" r="5" fill="white"/>
<circle cx="1335" cy="215" r="5" fill="white"/>
<circle cx="1405" cy="215" r="5" fill="white"/>
<circle cx="1475" cy="215" r="5" fill="white"/>
<circle cx="1545" cy="215" r="5" fill="white"/>
<circle cx="1615" cy="215" r="5" fill="white"/>
<circle cx="1685" cy="215" r="5" fill="white"/>
<circle cx="1755" cy="215" r="5" fill="white"/>
<circle cx="1825" cy="215" r="5" fill="white"/>
<circle cx="1895" cy="215" r="5" fill="white"/>
<circle cx="5" cy="285" r="5" fill="white"/>
<circle cx="75" cy="285" r="5" fill="white"/>
<circle cx="145" cy="285" r="5" fill="white"/>
<circle cx="215" cy="285" r="5" fill="white"/>
<circle cx="285" cy="285" r="5" fill="white"/>
<circle cx="355" cy="285" r="5" fill="white"/>
<circle cx="425" cy="285" r="5" fill="white"/>
<circle cx="495" cy="285" r="5" fill="white"/>
<circle cx="565" cy="285" r="5" fill="white"/>
<circle cx="635" cy="285" r="5" fill="white"/>
<circle cx="705" cy="285" r="5" fill="white"/>
<circle cx="775" cy="285" r="5" fill="white"/>
<circle cx="845" cy="285" r="5" fill="white"/>
<circle cx="915" cy="285" r="5" fill="white"/>
<circle cx="985" cy="285" r="5" fill="white"/>
<circle cx="1055" cy="285" r="5" fill="white"/>
<circle cx="1125" cy="285" r="5" fill="white"/>
<circle cx="1195" cy="285" r="5" fill="white"/>
<circle cx="1265" cy="285" r="5" fill="white"/>
<circle cx="1335" cy="285" r="5" fill="white"/>
<circle cx="1405" cy="285" r="5" fill="white"/>
<circle cx="1475" cy="285" r="5" fill="white"/>
<circle cx="1545" cy="285" r="5" fill="white"/>
<circle cx="1615" cy="285" r="5" fill="white"/>
<circle cx="1685" cy="285" r="5" fill="white"/>
<circle cx="1755" cy="285" r="5" fill="white"/>
<circle cx="1825" cy="285" r="5" fill="white"/>
<circle cx="1895" cy="285" r="5" fill="white"/>
<circle cx="5" cy="355" r="5" fill="white"/>
<circle cx="75" cy="355" r="5" fill="white"/>
<circle cx="145" cy="355" r="5" fill="white"/>
<circle cx="215" cy="355" r="5" fill="white"/>
<circle cx="285" cy="355" r="5" fill="white"/>
<circle cx="355" cy="355" r="5" fill="white"/>
<circle cx="425" cy="355" r="5" fill="white"/>
<circle cx="495" cy="355" r="5" fill="white"/>
<circle cx="565" cy="355" r="5" fill="white"/>
<circle cx="635" cy="355" r="5" fill="white"/>
<circle cx="705" cy="355" r="5" fill="white"/>
<circle cx="775" cy="355" r="5" fill="white"/>
<circle cx="845" cy="355" r="5" fill="white"/>
<circle cx="915" cy="355" r="5" fill="white"/>
<circle cx="985" cy="355" r="5" fill="white"/>
<circle cx="1055" cy="355" r="5" fill="white"/>
<circle cx="1125" cy="355" r="5" fill="white"/>
<circle cx="1195" cy="355" r="5" fill="white"/>
<circle cx="1265" cy="355" r="5" fill="white"/>
<circle cx="1335" cy="355" r="5" fill="white"/>
<circle cx="1405" cy="355" r="5" fill="white"/>
<circle cx="1475" cy="355" r="5" fill="white"/>
<circle cx="1545" cy="355" r="5" fill="white"/>
<circle cx="1615" cy="355" r="5" fill="white"/>
<circle cx="1685" cy="355" r="5" fill="white"/>
<circle cx="1755" cy="355" r="5" fill="white"/>
<circle cx="1825" cy="355" r="5" fill="white"/>
<circle cx="1895" cy="355" r="5" fill="white"/>
<circle cx="5" cy="425" r="5" fill="white"/>
<circle cx="75" cy="425" r="5" fill="white"/>
<circle cx="145" cy="425" r="5" fill="white"/>
<circle cx="215" cy="425" r="5" fill="white"/>
<circle cx="285" cy="425" r="5" fill="white"/>
<circle cx="355" cy="425" r="5" fill="white"/>
<circle cx="425" cy="425" r="5" fill="white"/>
<circle cx="495" cy="425" r="5" fill="white"/>
<circle cx="565" cy="425" r="5" fill="white"/>
<circle cx="635" cy="425" r="5" fill="white"/>
<circle cx="705" cy="425" r="5" fill="white"/>
<circle cx="775" cy="425" r="5" fill="white"/>
<circle cx="845" cy="425" r="5" fill="white"/>
<circle cx="915" cy="425" r="5" fill="white"/>
<circle cx="985" cy="425" r="5" fill="white"/>
<circle cx="1055" cy="425" r="5" fill="white"/>
<circle cx="1125" cy="425" r="5" fill="white"/>
<circle cx="1195" cy="425" r="5" fill="white"/>
<circle cx="1265" cy="425" r="5" fill="white"/>
<circle cx="1335" cy="425" r="5" fill="white"/>
<circle cx="1405" cy="425" r="5" fill="white"/>
<circle cx="1475" cy="425" r="5" fill="white"/>
<circle cx="1545" cy="425" r="5" fill="white"/>
<circle cx="1615" cy="425" r="5" fill="white"/>
<circle cx="1685" cy="425" r="5" fill="white"/>
<circle cx="1755" cy="425" r="5" fill="white"/>
<circle cx="1825" cy="425" r="5" fill="white"/>
<circle cx="1895" cy="425" r="5" fill="white"/>
<circle cx="5" cy="495" r="5" fill="white"/>
<circle cx="75" cy="495" r="5" fill="white"/>
<circle cx="145" cy="495" r="5" fill="white"/>
<circle cx="215" cy="495" r="5" fill="white"/>
<circle cx="285" cy="495" r="5" fill="white"/>
<circle cx="355" cy="495" r="5" fill="white"/>
<circle cx="425" cy="495" r="5" fill="white"/>
<circle cx="495" cy="495" r="5" fill="white"/>
<circle cx="565" cy="495" r="5" fill="white"/>
<circle cx="635" cy="495" r="5" fill="white"/>
<circle cx="705" cy="495" r="5" fill="white"/>
<circle cx="775" cy="495" r="5" fill="white"/>
<circle cx="845" cy="495" r="5" fill="white"/>
<circle cx="915" cy="495" r="5" fill="white"/>
<circle cx="985" cy="495" r="5" fill="white"/>
<circle cx="1055" cy="495" r="5" fill="white"/>
<circle cx="1125" cy="495" r="5" fill="white"/>
<circle cx="1195" cy="495" r="5" fill="white"/>
<circle cx="1265" cy="495" r="5" fill="white"/>
<circle cx="1335" cy="495" r="5" fill="white"/>
<circle cx="1405" cy="495" r="5" fill="white"/>
<circle cx="1475" cy="495" r="5" fill="white"/>
<circle cx="1545" cy="495" r="5" fill="white"/>
<circle cx="1615" cy="495" r="5" fill="white"/>
<circle cx="1685" cy="495" r="5" fill="white"/>
<circle cx="1755" cy="495" r="5" fill="white"/>
<circle cx="1825" cy="495" r="5" fill="white"/>
<circle cx="1895" cy="495" r="5" fill="white"/>
<circle cx="5" cy="565" r="5" fill="white"/>
<circle cx="75" cy="565" r="5" fill="white"/>
<circle cx="145" cy="565" r="5" fill="white"/>
<circle cx="215" cy="565" r="5" fill="white"/>
<circle cx="285" cy="565" r="5" fill="white"/>
<circle cx="355" cy="565" r="5" fill="white"/>
<circle cx="425" cy="565" r="5" fill="white"/>
<circle cx="495" cy="565" r="5" fill="white"/>
<circle cx="565" cy="565" r="5" fill="white"/>
<circle cx="635" cy="565" r="5" fill="white"/>
<circle cx="705" cy="565" r="5" fill="white"/>
<circle cx="775" cy="565" r="5" fill="white"/>
<circle cx="845" cy="565" r="5" fill="white"/>
<circle cx="915" cy="565" r="5" fill="white"/>
<circle cx="985" cy="565" r="5" fill="white"/>
<circle cx="1055" cy="565" r="5" fill="white"/>
<circle cx="1125" cy="565" r="5" fill="white"/>
<circle cx="1195" cy="565" r="5" fill="white"/>
<circle cx="1265" cy="565" r="5" fill="white"/>
<circle cx="1335" cy="565" r="5" fill="white"/>
<circle cx="1405" cy="565" r="5" fill="white"/>
<circle cx="1475" cy="565" r="5" fill="white"/>
<circle cx="1545" cy="565" r="5" fill="white"/>
<circle cx="1615" cy="565" r="5" fill="white"/>
<circle cx="1685" cy="565" r="5" fill="white"/>
<circle cx="1755" cy="565" r="5" fill="white"/>
<circle cx="1825" cy="565" r="5" fill="white"/>
<circle cx="1895" cy="565" r="5" fill="white"/>
<circle cx="5" cy="635" r="5" fill="white"/>
<circle cx="75" cy="635" r="5" fill="white"/>
<circle cx="145" cy="635" r="5" fill="white"/>
<circle cx="215" cy="635" r="5" fill="white"/>
<circle cx="285" cy="635" r="5" fill="white"/>
<circle cx="355" cy="635" r="5" fill="white"/>
<circle cx="425" cy="635" r="5" fill="white"/>
<circle cx="495" cy="635" r="5" fill="white"/>
<circle cx="565" cy="635" r="5" fill="white"/>
<circle cx="635" cy="635" r="5" fill="white"/>
<circle cx="705" cy="635" r="5" fill="white"/>
<circle cx="775" cy="635" r="5" fill="white"/>
<circle cx="845" cy="635" r="5" fill="white"/>
<circle cx="915" cy="635" r="5" fill="white"/>
<circle cx="985" cy="635" r="5" fill="white"/>
<circle cx="1055" cy="635" r="5" fill="white"/>
<circle cx="1125" cy="635" r="5" fill="white"/>
<circle cx="1195" cy="635" r="5" fill="white"/>
<circle cx="1265" cy="635" r="5" fill="white"/>
<circle cx="1335" cy="635" r="5" fill="white"/>
<circle cx="1405" cy="635" r="5" fill="white"/>
<circle cx="1475" cy="635" r="5" fill="white"/>
<circle cx="1545" cy="635" r="5" fill="white"/>
<circle cx="1615" cy="635" r="5" fill="white"/>
<circle cx="1685" cy="635" r="5" fill="white"/>
<circle cx="1755" cy="635" r="5" fill="white"/>
<circle cx="1825" cy="635" r="5" fill="white"/>
<circle cx="1895" cy="635" r="5" fill="white"/>
<circle cx="5" cy="705" r="5" fill="white"/>
<circle cx="75" cy="705" r="5" fill="white"/>
<circle cx="145" cy="705" r="5" fill="white"/>
<circle cx="215" cy="705" r="5" fill="white"/>
<circle cx="285" cy="705" r="5" fill="white"/>
<circle cx="355" cy="705" r="5" fill="white"/>
<circle cx="425" cy="705" r="5" fill="white"/>
<circle cx="495" cy="705" r="5" fill="white"/>
<circle cx="565" cy="705" r="5" fill="white"/>
<circle cx="635" cy="705" r="5" fill="white"/>
<circle cx="705" cy="705" r="5" fill="white"/>
<circle cx="775" cy="705" r="5" fill="white"/>
<circle cx="845" cy="705" r="5" fill="white"/>
<circle cx="915" cy="705" r="5" fill="white"/>
<circle cx="985" cy="705" r="5" fill="white"/>
<circle cx="1055" cy="705" r="5" fill="white"/>
<circle cx="1125" cy="705" r="5" fill="white"/>
<circle cx="1195" cy="705" r="5" fill="white"/>
<circle cx="1265" cy="705" r="5" fill="white"/>
<circle cx="1335" cy="705" r="5" fill="white"/>
<circle cx="1405" cy="705" r="5" fill="white"/>
<circle cx="1475" cy="705" r="5" fill="white"/>
<circle cx="1545" cy="705" r="5" fill="white"/>
<circle cx="1615" cy="705" r="5" fill="white"/>
<circle cx="1685" cy="705" r="5" fill="white"/>
<circle cx="1755" cy="705" r="5" fill="white"/>
<circle cx="1825" cy="705" r="5" fill="white"/>
<circle cx="1895" cy="705" r="5" fill="white"/>
<circle cx="5" cy="775" r="5" fill="white"/>
<circle cx="75" cy="775" r="5" fill="white"/>
<circle cx="145" cy="775" r="5" fill="white"/>
<circle cx="215" cy="775" r="5" fill="white"/>
<circle cx="285" cy="775" r="5" fill="white"/>
<circle cx="355" cy="775" r="5" fill="white"/>
<circle cx="425" cy="775" r="5" fill="white"/>
<circle cx="495" cy="775" r="5" fill="white"/>
<circle cx="565" cy="775" r="5" fill="white"/>
<circle cx="635" cy="775" r="5" fill="white"/>
<circle cx="705" cy="775" r="5" fill="white"/>
<circle cx="775" cy="775" r="5" fill="white"/>
<circle cx="845" cy="775" r="5" fill="white"/>
<circle cx="915" cy="775" r="5" fill="white"/>
<circle cx="985" cy="775" r="5" fill="white"/>
<circle cx="1055" cy="775" r="5" fill="white"/>
<circle cx="1125" cy="775" r="5" fill="white"/>
<circle cx="1195" cy="775" r="5" fill="white"/>
<circle cx="1265" cy="775" r="5" fill="white"/>
<circle cx="1335" cy="775" r="5" fill="white"/>
<circle cx="1405" cy="775" r="5" fill="white"/>
<circle cx="1475" cy="775" r="5" fill="white"/>
<circle cx="1545" cy="775" r="5" fill="white"/>
<circle cx="1615" cy="775" r="5" fill="white"/>
<circle cx="1685" cy="775" r="5" fill="white"/>
<circle cx="1755" cy="775" r="5" fill="white"/>
<circle cx="1825" cy="775" r="5" fill="white"/>
<circle cx="1895" cy="775" r="5" fill="white"/>
<circle cx="5" cy="845" r="5" fill="white"/>
<circle cx="75" cy="845" r="5" fill="white"/>
<circle cx="145" cy="845" r="5" fill="white"/>
<circle cx="215" cy="845" r="5" fill="white"/>
<circle cx="285" cy="845" r="5" fill="white"/>
<circle cx="355" cy="845" r="5" fill="white"/>
<circle cx="425" cy="845" r="5" fill="white"/>
<circle cx="495" cy="845" r="5" fill="white"/>
<circle cx="565" cy="845" r="5" fill="white"/>
<circle cx="635" cy="845" r="5" fill="white"/>
<circle cx="705" cy="845" r="5" fill="white"/>
<circle cx="775" cy="845" r="5" fill="white"/>
<circle cx="845" cy="845" r="5" fill="white"/>
<circle cx="915" cy="845" r="5" fill="white"/>
<circle cx="985" cy="845" r="5" fill="white"/>
<circle cx="1055" cy="845" r="5" fill="white"/>
<circle cx="1125" cy="845" r="5" fill="white"/>
<circle cx="1195" cy="845" r="5" fill="white"/>
<circle cx="1265" cy="845" r="5" fill="white"/>
<circle cx="1335" cy="845" r="5" fill="white"/>
<circle cx="1405" cy="845" r="5" fill="white"/>
<circle cx="1475" cy="845" r="5" fill="white"/>
<circle cx="1545" cy="845" r="5" fill="white"/>
<circle cx="1615" cy="845" r="5" fill="white"/>
<circle cx="1685" cy="845" r="5" fill="white"/>
<circle cx="1755" cy="845" r="5" fill="white"/>
<circle cx="1825" cy="845" r="5" fill="white"/>
<circle cx="1895" cy="845" r="5" fill="white"/>
<circle cx="5" cy="915" r="5" fill="white"/>
<circle cx="75" cy="915" r="5" fill="white"/>
<circle cx="145" cy="915" r="5" fill="white"/>
<circle cx="215" cy="915" r="5" fill="white"/>
<circle cx="285" cy="915" r="5" fill="white"/>
<circle cx="355" cy="915" r="5" fill="white"/>
<circle cx="425" cy="915" r="5" fill="white"/>
<circle cx="495" cy="915" r="5" fill="white"/>
<circle cx="565" cy="915" r="5" fill="white"/>
<circle cx="635" cy="915" r="5" fill="white"/>
<circle cx="705" cy="915" r="5" fill="white"/>
<circle cx="775" cy="915" r="5" fill="white"/>
<circle cx="845" cy="915" r="5" fill="white"/>
<circle cx="915" cy="915" r="5" fill="white"/>
<circle cx="985" cy="915" r="5" fill="white"/>
<circle cx="1055" cy="915" r="5" fill="white"/>
<circle cx="1125" cy="915" r="5" fill="white"/>
<circle cx="1195" cy="915" r="5" fill="white"/>
<circle cx="1265" cy="915" r="5" fill="white"/>
<circle cx="1335" cy="915" r="5" fill="white"/>
<circle cx="1405" cy="915" r="5" fill="white"/>
<circle cx="1475" cy="915" r="5" fill="white"/>
<circle cx="1545" cy="915" r="5" fill="white"/>
<circle cx="1615" cy="915" r="5" fill="white"/>
<circle cx="1685" cy="915" r="5" fill="white"/>
<circle cx="1755" cy="915" r="5" fill="white"/>
<circle cx="1825" cy="915" r="5" fill="white"/>
<circle cx="1895" cy="915" r="5" fill="white"/>
<circle cx="5" cy="985" r="5" fill="white"/>
<circle cx="75" cy="985" r="5" fill="white"/>
<circle cx="145" cy="985" r="5" fill="white"/>
<circle cx="215" cy="985" r="5" fill="white"/>
<circle cx="285" cy="985" r="5" fill="white"/>
<circle cx="355" cy="985" r="5" fill="white"/>
<circle cx="425" cy="985" r="5" fill="white"/>
<circle cx="495" cy="985" r="5" fill="white"/>
<circle cx="565" cy="985" r="5" fill="white"/>
<circle cx="635" cy="985" r="5" fill="white"/>
<circle cx="705" cy="985" r="5" fill="white"/>
<circle cx="775" cy="985" r="5" fill="white"/>
<circle cx="845" cy="985" r="5" fill="white"/>
<circle cx="915" cy="985" r="5" fill="white"/>
<circle cx="985" cy="985" r="5" fill="white"/>
<circle cx="1055" cy="985" r="5" fill="white"/>
<circle cx="1125" cy="985" r="5" fill="white"/>
<circle cx="1195" cy="985" r="5" fill="white"/>
<circle cx="1265" cy="985" r="5" fill="white"/>
<circle cx="1335" cy="985" r="5" fill="white"/>
<circle cx="1405" cy="985" r="5" fill="white"/>
<circle cx="1475" cy="985" r="5" fill="white"/>
<circle cx="1545" cy="985" r="5" fill="white"/>
<circle cx="1615" cy="985" r="5" fill="white"/>
<circle cx="1685" cy="985" r="5" fill="white"/>
<circle cx="1755" cy="985" r="5" fill="white"/>
<circle cx="1825" cy="985" r="5" fill="white"/>
<circle cx="1895" cy="985" r="5" fill="white"/>
<circle cx="5" cy="1055" r="5" fill="white"/>
<circle cx="75" cy="1055" r="5" fill="white"/>
<circle cx="145" cy="1055" r="5" fill="white"/>
<circle cx="215" cy="1055" r="5" fill="white"/>
<circle cx="285" cy="1055" r="5" fill="white"/>
<circle cx="355" cy="1055" r="5" fill="white"/>
<circle cx="425" cy="1055" r="5" fill="white"/>
<circle cx="495" cy="1055" r="5" fill="white"/>
<circle cx="565" cy="1055" r="5" fill="white"/>
<circle cx="635" cy="1055" r="5" fill="white"/>
<circle cx="705" cy="1055" r="5" fill="white"/>
<circle cx="775" cy="1055" r="5" fill="white"/>
<circle cx="845" cy="1055" r="5" fill="white"/>
<circle cx="915" cy="1055" r="5" fill="white"/>
<circle cx="985" cy="1055" r="5" fill="white"/>
<circle cx="1055" cy="1055" r="5" fill="white"/>
<circle cx="1125" cy="1055" r="5" fill="white"/>
<circle cx="1195" cy="1055" r="5" fill="white"/>
<circle cx="1265" cy="1055" r="5" fill="white"/>
<circle cx="1335" cy="1055" r="5" fill="white"/>
<circle cx="1405" cy="1055" r="5" fill="white"/>
<circle cx="1475" cy="1055" r="5" fill="white"/>
<circle cx="1545" cy="1055" r="5" fill="white"/>
<circle cx="1615" cy="1055" r="5" fill="white"/>
<circle cx="1685" cy="1055" r="5" fill="white"/>
<circle cx="1755" cy="1055" r="5" fill="white"/>
<circle cx="1825" cy="1055" r="5" fill="white"/>
<circle cx="1895" cy="1055" r="5" fill="white"/>
</g>
<defs>
<clipPath id="clip0_36_3">
<rect width="1920" height="1080" fill="white"/>
</clipPath>
</defs>
</svg>
