<svg width="60" height="60" viewBox="0 0 60 60" fill="none" xmlns="http://www.w3.org/2000/svg">
<path d="M10 10H17.5L22.5 5H37.5L42.5 10H50C51.3261 10 52.5979 10.5268 53.5355 11.4645C54.4732 12.4021 55 13.6739 55 15V45C55 46.3261 54.4732 47.5979 53.5355 48.5355C52.5979 49.4732 51.3261 50 50 50H10C8.67392 50 7.40215 49.4732 6.46447 48.5355C5.52678 47.5979 5 46.3261 5 45V15C5 13.6739 5.52678 12.4021 6.46447 11.4645C7.40215 10.5268 8.67392 10 10 10ZM30 17.5C26.6848 17.5 23.5054 18.817 21.1612 21.1612C18.817 23.5054 17.5 26.6848 17.5 30C17.5 33.3152 18.817 36.4946 21.1612 38.8388C23.5054 41.183 26.6848 42.5 30 42.5C33.3152 42.5 36.4946 41.183 38.8388 38.8388C41.183 36.4946 42.5 33.3152 42.5 30C42.5 26.6848 41.183 23.5054 38.8388 21.1612C36.4946 18.817 33.3152 17.5 30 17.5ZM30 22.5C31.9891 22.5 33.8968 23.2902 35.3033 24.6967C36.7098 26.1032 37.5 28.0109 37.5 30C37.5 31.9891 36.7098 33.8968 35.3033 35.3033C33.8968 36.7098 31.9891 37.5 30 37.5C28.0109 37.5 26.1032 36.7098 24.6967 35.3033C23.2902 33.8968 22.5 31.9891 22.5 30C22.5 28.0109 23.2902 26.1032 24.6967 24.6967C26.1032 23.2902 28.0109 22.5 30 22.5Z" fill="#595959"/>
</svg>
